<svg xmlns="http://www.w3.org/2000/svg" width="288.048" height="13.151" viewBox="0 0 288.048 13.151"><g transform="translate(-43.476 -216.084)"><path d="M-96.655,233.438l12.09,12.09,12.09-12.09" transform="translate(140.484 -17)" fill="none" stroke="#d3d3d3" stroke-width="1"/><path d="M-96.655,233.438l12.09,12.09,12.09-12.09" transform="translate(212.319 -17)" fill="none" stroke="#d3d3d3" stroke-width="1"/><path d="M-96.655,233.438l12.09,12.09,12.09-12.09" transform="translate(284.155 -17)" fill="none" stroke="#d3d3d3" stroke-width="1"/><path d="M-96.655,233.438l12.09,12.09,12.09-12.09" transform="translate(355.99 -17)" fill="none" stroke="#d3d3d3" stroke-width="1"/><path d="M-96.655,233.438l12.09,12.09,12.09-12.09" transform="translate(163.958 -17)" fill="none" stroke="#d3d3d3" stroke-width="1"/><path d="M-96.655,233.438l12.09,12.09,12.09-12.09" transform="translate(235.793 -17)" fill="none" stroke="#d3d3d3" stroke-width="1"/><path d="M-96.655,233.438l12.09,12.09,12.09-12.09" transform="translate(307.629 -17)" fill="none" stroke="#d3d3d3" stroke-width="1"/><path d="M-96.655,233.438l12.09,12.09,12.09-12.09" transform="translate(379.464 -17)" fill="none" stroke="#d3d3d3" stroke-width="1"/><path d="M-96.655,233.438l12.09,12.09,12.09-12.09" transform="translate(188.139 -17)" fill="none" stroke="#d3d3d3" stroke-width="1"/><path d="M-96.655,233.438l12.09,12.09,12.09-12.09" transform="translate(259.974 -17)" fill="none" stroke="#d3d3d3" stroke-width="1"/><path d="M-96.655,233.438l12.09,12.09,12.09-12.09" transform="translate(331.809 -17)" fill="none" stroke="#d3d3d3" stroke-width="1"/><path d="M-96.655,233.438l12.09,12.09,12.09-12.09" transform="translate(403.644 -17)" fill="none" stroke="#d3d3d3" stroke-width="1"/></g></svg>